<svg width="150" height="150" viewBox="0 0 150 150" fill="none" xmlns="http://www.w3.org/2000/svg">
<path d="M75 0L100.831 12.6381L128.033 21.967L137.362 49.1689L150 75L137.362 100.831L128.033 128.033L100.831 137.362L75 150L49.1689 137.362L21.967 128.033L12.6381 100.831L0 75L12.6381 49.1689L21.967 21.967L49.1689 12.6381L75 0Z" fill="#A6652E"/>
<path d="M84.8092 74H65.2092L62.4492 71.24V65.64H68.0492V68.4H82.0092V61.48H70.8092H62.4492V46H86.3692V51.6H68.0492V55.84H84.8092L87.5692 58.6V71.24L84.8092 74Z" fill="white"/>
<path d="M54.488 103H51.128V91.24L56.144 86.2H66.2V103H62.864V89.56H57.824L54.488 92.92V103ZM82.8505 103H68.5945V86.2H82.8505V89.56H71.9545V92.944H82.0105V96.304H71.9545V99.64H82.8505V103ZM93.5208 103H90.1608V89.56H84.2808V86.2H99.3528V89.56H93.5208V103Z" fill="white"/>
</svg>
