<svg width="1106" height="1087" viewBox="0 0 1106 1087" fill="none" xmlns="http://www.w3.org/2000/svg">
<path d="M564 0L750.673 91.3316L947.252 158.748L1014.67 355.327L1106 542L1014.67 728.673L947.252 925.252L750.673 992.668L564 1084L377.327 992.668L180.748 925.252L113.332 728.673L22 542L113.332 355.327L180.748 158.748L377.327 91.3316L564 0Z" fill="#A6652E" fill-opacity="0.4"/>
<path d="M542 0L728.673 91.3316L925.252 158.748L992.668 355.327L1084 542L992.668 728.673L925.252 925.252L728.673 992.668L542 1084L355.327 992.668L158.748 925.252L91.3316 728.673L0 542L91.3316 355.327L158.748 158.748L355.327 91.3316L542 0Z" fill="#DC9C20" fill-opacity="0.5"/>
</svg>
