<svg width="150" height="150" viewBox="0 0 150 150" fill="none" xmlns="http://www.w3.org/2000/svg">
<path d="M75 0L100.831 12.6381L128.033 21.967L137.362 49.1689L150 75L137.362 100.831L128.033 128.033L100.831 137.362L75 150L49.1689 137.362L21.967 128.033L12.6381 100.831L0 75L12.6381 49.1689L21.967 21.967L49.1689 12.6381L75 0Z" fill="#A6652E"/>
<path d="M65.1897 88.8182C65.1897 93.3369 61.4844 97 56.9138 97C52.3432 97 48.6379 93.3369 48.6379 88.8182M65.1897 88.8182C65.1897 84.2995 61.4844 80.6364 56.9138 80.6364C52.3432 80.6364 48.6379 84.2995 48.6379 88.8182M65.1897 88.8182H83.8103M48.6379 88.8182H44.5V53C44.5 52.4477 44.9477 52 45.5 52H83.8103V88.8182M102.431 88.8182C102.431 93.3369 98.7258 97 94.1552 97C89.5845 97 85.8793 93.3369 85.8793 88.8182M102.431 88.8182C102.431 84.2995 98.7258 80.6364 94.1552 80.6364C89.5845 80.6364 85.8793 84.2995 85.8793 88.8182M102.431 88.8182H104.5V72.4545L94.1552 62.2273H83.8103V88.8182M85.8793 88.8182H83.8103" stroke="white" stroke-width="6" stroke-linecap="round" stroke-linejoin="round"/>
</svg>
