<?xml version="1.0" encoding="utf-8"?>
<!-- Generator: Adobe Illustrator 24.1.2, SVG Export Plug-In . SVG Version: 6.00 Build 0)  -->
<svg version="1.1" id="Слой_1" xmlns="http://www.w3.org/2000/svg" xmlns:xlink="http://www.w3.org/1999/xlink" x="0px" y="0px"
	 viewBox="0 0 48 48" style="enable-background:new 0 0 48 48;" xml:space="preserve">
<style type="text/css">
	.st0{fill:#A6652E;}
	.st1{fill:none;stroke:#FFFFFF;stroke-width:2;}
</style>
<path class="st0" d="M24,0l8.27,4.04l8.7,2.99l2.99,8.7L48,24l-4.04,8.27l-2.99,8.7l-8.7,2.99L24,48l-8.27-4.04l-8.7-2.99l-2.99-8.7
	L0,24l4.04-8.27l2.99-8.7l8.7-2.99L24,0z"/>
<path class="st1" d="M24,33.6c0,0,7.51-6.68,7.51-11.69c0-4.15-3.36-7.51-7.51-7.51s-7.51,3.36-7.51,7.51
	C16.49,26.92,24,33.6,24,33.6z"/>
<path class="st1" d="M26.4,21.6c0,1.33-1.07,2.4-2.4,2.4c-1.33,0-2.4-1.07-2.4-2.4c0-1.33,1.07-2.4,2.4-2.4
	C25.33,19.2,26.4,20.27,26.4,21.6z"/>
</svg>
