<svg width="711" height="484" viewBox="0 0 711 484" fill="none" xmlns="http://www.w3.org/2000/svg">
<path d="M373.122 0.584972C374.197 0.206388 375.369 0.206387 376.444 0.584972L490.569 40.779L610.203 70.3129C611.657 70.672 612.874 71.6643 613.518 73.0167L654.153 158.307C654.262 158.536 654.388 158.757 654.531 158.967L709.056 239.189C710.209 240.886 710.209 243.114 709.056 244.811L654.531 325.033C654.388 325.243 654.262 325.464 654.153 325.693L613.518 410.983C612.874 412.336 611.657 413.328 610.203 413.687L490.569 443.221L376.444 483.415C375.369 483.794 374.197 483.794 373.122 483.415L258.996 443.221L139.362 413.687C137.908 413.328 136.691 412.336 136.047 410.983L95.4127 325.693C95.3034 325.464 95.1769 325.243 95.0341 325.033L40.5091 244.811C39.3561 243.114 39.3561 240.886 40.5091 239.189L95.0341 158.967C95.1769 158.757 95.3034 158.536 95.4127 158.307L136.047 73.0167C136.691 71.6643 137.908 70.672 139.362 70.3129L258.996 40.779L373.122 0.584972Z" fill="#A6652E" fill-opacity="0.4"/>
<path d="M334.523 0.584972C335.598 0.206388 336.77 0.206387 337.845 0.584972L451.971 40.779L571.604 70.3129C573.059 70.672 574.275 71.6643 574.92 73.0167L615.554 158.307C615.663 158.536 615.79 158.757 615.932 158.967L670.457 239.189C671.61 240.886 671.61 243.114 670.457 244.811L615.932 325.033C615.79 325.243 615.663 325.464 615.554 325.693L574.92 410.983C574.275 412.336 573.059 413.328 571.604 413.687L451.971 443.221L337.845 483.415C336.77 483.794 335.598 483.794 334.523 483.415L220.397 443.221L100.764 413.687C99.3092 413.328 98.0924 412.336 97.4481 410.983L56.8139 325.693C56.7047 325.464 56.5781 325.243 56.4353 325.033L1.91031 244.811C0.757321 243.114 0.757324 240.886 1.91031 239.189L56.4353 158.967C56.5781 158.757 56.7047 158.536 56.8139 158.307L97.4481 73.0167C98.0924 71.6643 99.3092 70.672 100.764 70.3129L220.397 40.779L334.523 0.584972Z" fill="#DC9C20" fill-opacity="0.5"/>
</svg>
