<?xml version="1.0" encoding="utf-8"?>
<!-- Generator: Adobe Illustrator 24.1.2, SVG Export Plug-In . SVG Version: 6.00 Build 0)  -->
<svg version="1.1" id="Слой_1" xmlns="http://www.w3.org/2000/svg" xmlns:xlink="http://www.w3.org/1999/xlink" x="0px" y="0px"
	 viewBox="0 0 48 48" style="enable-background:new 0 0 48 48;" xml:space="preserve">
<style type="text/css">
	.st0{fill:#A6652E;}
	.st1{fill:none;stroke:#FFFFFF;stroke-width:2;stroke-linecap:round;stroke-linejoin:round;}
</style>
<path class="st0" d="M24,0l8.27,4.04l8.7,2.99l2.99,8.7L48,24l-4.04,8.27l-2.99,8.7l-8.7,2.99L24,48l-8.27-4.04l-8.7-2.99l-2.99-8.7
	L0,24l4.04-8.27l2.99-8.7l8.7-2.99L24,0z"/>
<path class="st1" d="M15.6,18.1l8.4,6.6l9-6.6 M21,24.6l-5.4,5.5 M32.4,29.6l-6-5.5 M16.8,31.1c-1.33,0-2.4-1.07-2.4-2.4V19.3
	c0-1.33,1.07-2.4,2.4-2.4h14.4c1.33,0,2.4,1.07,2.4,2.4v9.39c0,1.33-1.07,2.4-2.4,2.4H16.8z"/>
</svg>
