<?xml version="1.0" encoding="utf-8"?>
<!-- Generator: Adobe Illustrator 24.1.2, SVG Export Plug-In . SVG Version: 6.00 Build 0)  -->
<svg version="1.1" id="Слой_1" xmlns="http://www.w3.org/2000/svg" xmlns:xlink="http://www.w3.org/1999/xlink" x="0px" y="0px"
	 viewBox="0 0 200 200" style="enable-background:new 0 0 200 200;" xml:space="preserve">
<style type="text/css">
	.st0{fill:#A6652E;}
	.st1{fill:#FFFFFF;}
</style>
<path class="st0" d="M100,0l34.44,16.85l36.27,12.44l12.44,36.27L200,100l-16.85,34.44l-12.44,36.27l-36.27,12.44L100,200
	l-34.44-16.85l-36.27-12.44l-12.44-36.27L0,100l16.85-34.44l12.44-36.27l36.27-12.44L100,0z"/>
<path class="st1" d="M50.1,87.52h11.17v-4.45H50.1V87.52z M63.5,92H45.62V69.6h19.01v4.48H50.1v4.51H63.5l2.21,2.24v8.96L63.5,92z
	 M73.06,87.52h11.17V74.08H73.06V87.52z M86.47,92H70.79l-2.21-2.21V71.87l2.21-2.27h15.68l2.21,2.27v17.92L86.47,92z M96.03,92
	h-4.48V76.32l6.69-6.72h13.41V92h-4.45V74.08h-6.72l-4.45,4.48V92z M133.84,92h-19.01V69.6h19.01v4.48h-14.53v4.51h13.41v4.48
	h-13.41v4.45h14.53V92z M155.72,92h-19.01V69.6h19.01v4.48h-14.53v4.51h13.41v4.48h-13.41v4.45h14.53V92z"/>
<path class="st1" d="M57.24,128.28h16.75v-6.67H57.24V128.28z M57.24,114.89h16.75v-6.77H57.24V114.89z M77.35,135H53.83l-3.31-3.31
	v-10.08l3.31-3.36l-3.31-3.36v-10.08l3.31-3.41h23.52l3.31,3.41v10.08l-3.31,3.36l3.31,3.36v10.08L77.35,135z M92.16,123.91
	l12.43-15.79H92.16V123.91z M108.91,128.28v-15.65l-12.19,15.65H108.91z M112.27,135H88.75l-3.31-3.31v-26.88l3.31-3.41h23.52
	l3.31,3.41v26.88L112.27,135z M127.08,123.91l12.43-15.79h-12.43V123.91z M143.83,128.28v-15.65l-12.19,15.65H143.83z M147.19,135
	h-23.52l-3.31-3.31v-26.88l3.31-3.41h23.52l3.31,3.41v26.88L147.19,135z"/>
</svg>
