<svg width="150" height="150" viewBox="0 0 150 150" fill="none" xmlns="http://www.w3.org/2000/svg">
<path d="M75 0L100.831 12.6381L128.033 21.967L137.362 49.1689L150 75L137.362 100.831L128.033 128.033L100.831 137.362L75 150L49.1689 137.362L21.967 128.033L12.6381 100.831L0 75L12.6381 49.1689L21.967 21.967L49.1689 12.6381L75 0Z" fill="#A6652E"/>
<path d="M60.9263 100.462C59.3545 100.986 58.505 102.685 59.0289 104.256C59.5529 105.828 61.2519 106.678 62.8237 106.154L60.9263 100.462ZM81.3462 104.606L81.074 101.618L81.3462 104.606ZM93.0288 102.01L94.3445 104.706V104.706L93.0288 102.01ZM104.192 91.8547L101.861 89.9666L104.192 91.8547ZM96.557 85.5007L98.6783 87.622L96.557 85.5007ZM91.4158 90.6419L93.5371 92.7632L91.4158 90.6419ZM77.4519 89.9231C75.7951 89.9231 74.4519 91.2662 74.4519 92.9231C74.4519 94.5799 75.7951 95.9231 77.4519 95.9231V89.9231ZM103.005 84.8622L101.341 87.3584L103.005 84.8622ZM65.8263 83.159L67.1679 85.8422V85.8422L65.8263 83.159ZM79.7999 81.8807L80.5892 78.9864L79.7999 81.8807ZM85.2568 83.369L84.4674 86.2633L85.2568 83.369ZM86.9858 89.8796L84.8644 87.7583L86.9858 89.8796ZM81.821 90.8018C80.6494 91.9733 80.6494 93.8728 81.821 95.0444C82.9926 96.216 84.8921 96.216 86.0636 95.0444L81.821 90.8018ZM62.8237 106.154C63.2129 106.024 64.0188 105.938 65.4341 106.038C66.7881 106.135 68.3681 106.372 70.1715 106.655C73.6019 107.194 77.9188 107.93 81.6183 107.593L81.074 101.618C78.2831 101.872 74.8116 101.311 71.1025 100.728C69.3362 100.451 67.5088 100.171 65.8609 100.054C64.2744 99.9405 62.4842 99.9423 60.9263 100.462L62.8237 106.154ZM81.6183 107.593C84.0131 107.375 86.0401 107.273 87.9101 106.934C89.9321 106.568 91.8295 105.933 94.3445 104.706L91.7132 99.3135C89.5822 100.353 88.2124 100.782 86.8416 101.03C85.3189 101.306 83.8276 101.367 81.074 101.618L81.6183 107.593ZM94.3445 104.706C96.7758 103.519 99.126 101.603 101.151 99.6577C103.204 97.6845 105.07 95.5372 106.523 93.7428L101.861 89.9666C100.501 91.6453 98.8072 93.5886 96.9936 95.3312C95.151 97.1016 93.3262 98.5264 91.7132 99.3135L94.3445 104.706ZM94.4357 83.3794L89.2945 88.5206L93.5371 92.7632L98.6783 87.622L94.4357 83.3794ZM85.9085 89.9231H77.4519V95.9231H85.9085V89.9231ZM89.2945 88.5206C88.3965 89.4186 87.1785 89.9231 85.9085 89.9231V95.9231C88.7698 95.9231 91.5139 94.7864 93.5371 92.7632L89.2945 88.5206ZM104.669 82.3661C101.452 80.2217 97.1693 80.6458 94.4357 83.3794L98.6783 87.622C99.3895 86.9108 100.504 86.8005 101.341 87.3584L104.669 82.3661ZM106.523 93.7429C109.513 90.0512 108.39 84.8466 104.669 82.3661L101.341 87.3584C102.356 88.0353 102.453 89.2349 101.861 89.9666L106.523 93.7429ZM47.5962 82.9423H57.9808V76.9423H47.5962V82.9423ZM57.5769 82.5385V105.904H63.5769V82.5385H57.5769ZM57.9808 105.5H47.5962V111.5H57.9808V105.5ZM48 105.904V82.5385H42V105.904H48ZM47.5962 105.5C47.8192 105.5 48 105.681 48 105.904H42C42 108.995 44.5055 111.5 47.5962 111.5V105.5ZM57.5769 105.904C57.5769 105.681 57.7577 105.5 57.9808 105.5V111.5C61.0714 111.5 63.5769 108.995 63.5769 105.904H57.5769ZM57.9808 82.9423C57.7577 82.9423 57.5769 82.7615 57.5769 82.5385H63.5769C63.5769 79.4478 61.0714 76.9423 57.9808 76.9423V82.9423ZM47.5962 76.9423C44.5055 76.9423 42 79.4478 42 82.5385H48C48 82.7615 47.8192 82.9423 47.5962 82.9423V76.9423ZM63.2166 87.8179L67.1679 85.8422L64.4847 80.4757L60.5334 82.4513L63.2166 87.8179ZM73.9535 84.2404H75.0182V78.2404H73.9535V84.2404ZM79.0105 84.775L84.4674 86.2633L86.0461 80.4747L80.5892 78.9864L79.0105 84.775ZM84.8644 87.7583L81.821 90.8018L86.0636 95.0444L89.1071 92.0009L84.8644 87.7583ZM84.4674 86.2633C85.1298 86.4439 85.3499 87.2728 84.8644 87.7583L89.1071 92.0009C92.8502 88.2578 91.1531 81.8675 86.0461 80.4747L84.4674 86.2633ZM75.0182 84.2404C76.3668 84.2404 77.7094 84.4202 79.0105 84.775L80.5892 78.9864C78.7736 78.4913 76.9001 78.2404 75.0182 78.2404V84.2404ZM67.1679 85.8422C69.2748 84.7888 71.598 84.2404 73.9535 84.2404V78.2404C70.6665 78.2404 67.4247 79.0057 64.4847 80.4757L67.1679 85.8422ZM91.3269 61.7692C91.3269 65.8476 88.0207 69.1538 83.9423 69.1538V75.1538C91.3344 75.1538 97.3269 69.1613 97.3269 61.7692H91.3269ZM83.9423 69.1538C79.8639 69.1538 76.5577 65.8476 76.5577 61.7692H70.5577C70.5577 69.1613 76.5502 75.1538 83.9423 75.1538V69.1538ZM76.5577 61.7692C76.5577 57.6908 79.8639 54.3846 83.9423 54.3846V48.3846C76.5502 48.3846 70.5577 54.3771 70.5577 61.7692H76.5577ZM83.9423 54.3846C88.0207 54.3846 91.3269 57.6908 91.3269 61.7692H97.3269C97.3269 54.3771 91.3344 48.3846 83.9423 48.3846V54.3846ZM73.5577 58.7692C69.4793 58.7692 66.1731 55.463 66.1731 51.3846H60.1731C60.1731 58.7767 66.1656 64.7692 73.5577 64.7692V58.7692ZM66.1731 51.3846C66.1731 47.3062 69.4793 44 73.5577 44V38C66.1656 38 60.1731 43.9925 60.1731 51.3846H66.1731ZM73.5577 44C77.6361 44 80.9423 47.3062 80.9423 51.3846H86.9423C86.9423 43.9925 80.9498 38 73.5577 38V44Z" fill="white"/>
</svg>
