<?xml version="1.0" encoding="utf-8"?>
<!-- Generator: Adobe Illustrator 24.1.2, SVG Export Plug-In . SVG Version: 6.00 Build 0)  -->
<svg version="1.1" id="Слой_1" xmlns="http://www.w3.org/2000/svg" xmlns:xlink="http://www.w3.org/1999/xlink" x="0px" y="0px"
	 viewBox="0 0 48 48" style="enable-background:new 0 0 48 48;" xml:space="preserve">
<style type="text/css">
	.st0{fill:#A6652E;}
	.st1{fill:none;stroke:#FFFFFF;stroke-width:2;stroke-linecap:round;stroke-linejoin:round;}
</style>
<path class="st0" d="M24,0l8.27,4.04l8.7,2.99l2.99,8.7L48,24l-4.04,8.27l-2.99,8.7l-8.7,2.99L24,48l-8.27-4.04l-8.7-2.99l-2.99-8.7
	L0,24l4.04-8.27l2.99-8.7l8.7-2.99L24,0z"/>
<path class="st1" d="M32.66,30.77c0,0-1.16,1.14-1.44,1.47c-0.46,0.49-1.01,0.73-1.72,0.73c-0.07,0-0.14,0-0.21,0
	c-1.36-0.09-2.62-0.62-3.57-1.07c-2.59-1.25-4.87-3.03-6.76-5.28c-1.56-1.88-2.61-3.62-3.3-5.48c-0.43-1.14-0.58-2.02-0.51-2.86
	c0.05-0.53,0.25-0.98,0.63-1.36l1.56-1.56c0.22-0.21,0.46-0.32,0.7-0.32c0.29,0,0.52,0.17,0.67,0.32c0,0,0.01,0.01,0.01,0.01
	c0.28,0.26,0.55,0.53,0.82,0.82c0.14,0.15,0.29,0.29,0.44,0.44l1.25,1.25c0.49,0.48,0.49,0.93,0,1.42
	c-0.13,0.13-0.26,0.27-0.39,0.39c-0.38,0.39-0.08,0.09-0.48,0.45c-0.01,0.01-0.02,0.01-0.02,0.02c-0.39,0.39-0.32,0.78-0.24,1.04
	c0,0.01,0.01,0.03,0.01,0.04c0.33,0.79,0.78,1.53,1.48,2.41l0,0c1.26,1.55,2.6,2.77,4.07,3.69c0.19,0.12,0.38,0.21,0.56,0.31
	c0.16,0.08,0.32,0.16,0.45,0.24c0.02,0.01,0.04,0.02,0.06,0.03c0.16,0.08,0.3,0.11,0.45,0.11c0.38,0,0.62-0.24,0.7-0.32l0.9-0.9
	c0.16-0.16,0.4-0.34,0.69-0.34c0.28,0,0.52,0.18,0.66,0.33c0,0,0,0,0.01,0.01l2.52,2.52C33.13,29.81,32.66,30.77,32.66,30.77z"/>
</svg>
