<?xml version="1.0" encoding="utf-8"?>
<!-- Generator: Adobe Illustrator 24.1.2, SVG Export Plug-In . SVG Version: 6.00 Build 0)  -->
<svg version="1.1" id="Слой_1" xmlns="http://www.w3.org/2000/svg" xmlns:xlink="http://www.w3.org/1999/xlink" x="0px" y="0px"
	 viewBox="0 0 48 48" style="enable-background:new 0 0 48 48;" xml:space="preserve">
<style type="text/css">
	.st0{fill:#A6652E;}
	.st1{fill:#FFFFFF;}
</style>
<path class="st0" d="M24,0l8.27,4.04l8.7,2.99l2.99,8.7L48,24l-4.04,8.27l-2.99,8.7l-8.7,2.99L24,48l-8.27-4.04l-8.7-2.99l-2.99-8.7
	L0,24l4.04-8.27l2.99-8.7l8.7-2.99L24,0z"/>
<path class="st1" d="M26.88,26.95c0.52,0.17,1.09-0.11,1.26-0.63c0.17-0.52-0.11-1.09-0.63-1.26L26.88,26.95z M23.6,24.8h-1
	c0,0.43,0.28,0.81,0.68,0.95L23.6,24.8z M24.6,19.78c0-0.55-0.45-1-1-1s-1,0.45-1,1H24.6z M27.52,25.05l-3.6-1.2l-0.63,1.9l3.6,1.2
	L27.52,25.05z M24.6,24.8v-5.02h-2v5.02H24.6z M32.2,23.6c0,4.75-3.85,8.6-8.6,8.6v2c5.85,0,10.6-4.75,10.6-10.6H32.2z M23.6,32.2
	c-4.75,0-8.6-3.85-8.6-8.6h-2c0,5.85,4.75,10.6,10.6,10.6V32.2z M15,23.6c0-4.75,3.85-8.6,8.6-8.6v-2C17.75,13,13,17.75,13,23.6H15z
	 M23.6,15c4.75,0,8.6,3.85,8.6,8.6h2c0-5.85-4.75-10.6-10.6-10.6V15z"/>
</svg>
